<svg xmlns="http://www.w3.org/2000/svg" xmlns:xlink="http://www.w3.org/1999/xlink" width="48" height="48" viewBox="0 0 48 48"><path fill="#FF9800" d="M15 12.247L10.982 12.247 10.982 15.247 12.991 15.5 15 15.247z"/><path fill="#FFB74D" d="M20.734 33L23 30.195 20.311 21.606 17.448 22.503zM8 34L5 32 5 28 8 28zM13 14c-2.758 0-5-2.243-5-5s2.242-5 5-5 5 2.243 5 5S15.758 14 13 14"/><path fill="#424242" d="M12.781,2C10.344,2.219,8,3.93,8,7.574V9l1,1V7l6.31-2.201L17,7v3l1-1V7.798C18,5.384,17.865,3.592,15,3l-0.485-1H12.781z"/><path fill="#BF360C" d="M37,15c0,0-1-1-4-1s-4,1-4,1V6h8V15z"/><path fill="#F9A83D" d="M24.005 33.037L22.487 29.767 27.178 22.086 29.738 23.649z"/><path fill="#F9A83D" d="M25,23v2.563l3,2L29,47h8l1-14l3-2v-8c0-4.418-3.582-8-8-8S25,18.582,25,23"/><path fill="#FF9800" d="M35,12h-4v3c0,0-0.124,2,1.959,2S35,15,35,15V12z"/><path fill="#FFB74D" d="M33,14c-2.758,0-5-2.243-5-5s2.242-5,5-5s5,2.243,5,5S35.758,14,33,14"/><path fill="#FF5722" d="M33,2c-3.038,0-7,1-7,10l3,3V8.5L35,5l2,2.5V15l3-3c0-2.012,0-9-5-9l-0.5-1H33z"/><g><path fill="#FFEBEE" d="M29.084 4.209c0 .552-1 2-1 2s-1-1.448-1-2c0-.554.447-1 1-1C28.636 3.209 29.084 3.655 29.084 4.209zM27.084 8.209c0-.554 1-2 1-2s1 1.446 1 2c0 .552-.448 1-1 1C27.531 9.209 27.084 8.761 27.084 8.209zM26.084 5.209c.553 0 2 1 2 1s-1.447 1-2 1-1-.448-1-1C25.084 5.655 25.531 5.209 26.084 5.209zM30.084 7.209c-.553 0-2-1-2-1s1.447-1 2-1 1 .446 1 1C31.084 6.761 30.637 7.209 30.084 7.209z"/></g><path fill="#E3F2FD" d="M15,15.208v0.039L12.991,15.5l-2.009-0.253v-0.062c-0.685,0.144-1.034,0.318-1.034,0.318l2.979,12.494l3.035-12.495C15.962,15.503,15.628,15.347,15,15.208z"/><g><path fill="#37474F" d="M21,23c-0.893-4.177-2.521-6.641-5.216-7.57c0.115,0.043,0.178,0.073,0.178,0.073l-3.035,12.495L9.952,15.519C6.81,16.659,5,19.574,5,23v6l3,2v3l1,13h8l1-13v-2v-7.604l1.734,5.401l2.641-1.578L21,23z"/><path fill="#37474F" d="M10.978 13.997l1.949 1.503-1.949 1.503c0 0-.565-.311-.565-1.459S10.978 13.997 10.978 13.997zM14.936 17.003L12.927 15.5l2.009-1.503c0 0 .564.311.564 1.459S14.936 17.003 14.936 17.003z"/></g><g><path fill="#BBDEFB" d="M28.5 38A1.5 1.5 0 1 0 28.5 41A1.5 1.5 0 1 0 28.5 38Z"/><path fill="#BBDEFB" d="M25.5 37A1.5 1.5 0 1 0 25.5 40 1.5 1.5 0 1 0 25.5 37zM31.5 38A1.5 1.5 0 1 0 31.5 41 1.5 1.5 0 1 0 31.5 38z"/><path fill="#BBDEFB" d="M34.5 38A1.5 1.5 0 1 0 34.5 41A1.5 1.5 0 1 0 34.5 38Z"/><path fill="#BBDEFB" d="M37.5 38A1.5 1.5 0 1 0 37.5 41 1.5 1.5 0 1 0 37.5 38zM40.5 37A1.5 1.5 0 1 0 40.5 40 1.5 1.5 0 1 0 40.5 37z"/><path fill="#BBDEFB" d="M37.625,23H41c0-3.733-2.562-6.86-6.021-7.743C34.913,15.792,34.585,17,32.959,17c-1.623,0-1.903-1.204-1.949-1.74C27.557,16.146,25,19.271,25,23h3.417l-4.06,15c0,0,1.41,2,8.66,2s8.625-2,8.625-2L37.625,23z"/></g></svg>