<svg xmlns="http://www.w3.org/2000/svg" xmlns:xlink="http://www.w3.org/1999/xlink" viewBox="0 0 48 48"><path fill="#795548" d="M24,5L24,5L24,5C12.954,5,4,13.954,4,25v5.773c0,2.242,0.976,4.385,2.709,5.812 C9.937,39.245,15.925,43,24,43s14.063-3.755,17.291-6.415C43.024,35.158,44,33.015,44,30.773V25C44,13.954,35.046,5,24,5z"/><path fill="#d7ccc8" d="M33,24c4,0,7,4,7,7v-1.667C40,22.522,34.478,17,27.667,17h-7.333C13.522,17,8,22.522,8,29.333V31 c0-3,3-7,7-7c2.201,0,3,1.794,3,3v1c-1,0-4.042,0.5-5.75,1.792c-0.286,0.217-0.596,0.451-0.914,0.691 c-1.827,1.38-1.8,4.151,0.078,5.461C14.159,37.857,18.467,40,24,40s9.841-2.143,12.586-4.057c1.878-1.31,1.905-4.081,0.078-5.461 c-0.317-0.24-0.627-0.474-0.914-0.691C34.042,28.5,31,28,30,28v-1C30,25.794,30.799,24,33,24z"/><path fill="#6d4c41" d="M24,34l-11-3c6,2,6,7,11,7s5-5,11-7L24,34z"/><path fill="#4e342e" d="M13,31c1.901,0.452,3.741,0.918,5.573,1.314C20.404,32.695,22.232,32.982,24,33 c1.767-0.022,3.595-0.307,5.426-0.689C31.258,31.915,33.098,31.45,35,31c-1.55,1.205-3.299,2.106-5.134,2.808 C28.026,34.494,26.069,34.984,24,35c-2.068-0.019-4.025-0.508-5.865-1.194C16.3,33.103,14.551,32.202,13,31z"/><path fill="#4e342e" d="M24,33c-3,0-4-4-4-4c0-1.657,1.343-3,3-3h2c1.657,0,3,1.343,3,3C28,29,27,33,24,33z"/><path fill="#261512" d="M25 32.837c1.401-.47 2.225-1.864 2.644-2.837H26c-.55 0-1 .45-1 1V32.837zM23 32.837V31c0-.55-.45-1-1-1h-1.644C20.775 30.972 21.599 32.367 23 32.837z"/><path fill="#000001" d="M17 27c0 0 0-2-2-2 0 0-1 0-1 1s1 1 1 1H17zM30.979 27.021c0 0 0-2 2-2 0 0 1 0 1 1s-1 1-1 1H30.979z"/></svg>