<svg xmlns="http://www.w3.org/2000/svg" xmlns:xlink="http://www.w3.org/1999/xlink" viewBox="0 0 48 48"><path fill="#ffca28" d="M44,24c0,11-9,20-20,20S4,35,4,24S13,4,24,4S44,13,44,24z"/><path fill="#5d4037" d="M33,27c0,0.86-0.27,4.11-1.69,7.01H16.65c-1.42-2.9-1.7-6.15-1.65-7.01H33z"/><path fill="#b76c09" d="M13.8 21.6l-1.6-1.2C12.3 20.3 14 18 17 18s4.7 2.3 4.8 2.4l-1.6 1.2c0 0-1.3-1.6-3.2-1.6S13.8 21.6 13.8 21.6zM27.8 21.6l-1.6-1.2C26.3 20.3 28 18 31 18s4.7 2.3 4.8 2.4l-1.6 1.2c0 0-1.3-1.6-3.2-1.6S27.8 21.6 27.8 21.6z"/><path fill="#c62828" d="M31.31,34.01C30.04,36.65,27.81,39,24,39s-6.05-2.35-7.35-4.99c0,0,1.975-2.01,7.35-2.01 S31.31,34.01,31.31,34.01z"/></svg>