<svg xmlns="http://www.w3.org/2000/svg" xmlns:xlink="http://www.w3.org/1999/xlink" viewBox="0 0 48 48"><path fill="#7e57c2" d="M3 11H45V40H3z"/><path fill="#7e57c2" d="M24 32A5 5 0 1 0 24 42A5 5 0 1 0 24 32Z"/><path fill="#5e35b1" d="M24 34A3 3 0 1 0 24 40A3 3 0 1 0 24 34Z"/><path fill="#d7ccc8" d="M40 8L25 11 23 11 8 8 6 13 6 37 42 37 42 13z"/><path fill="#bcaaa4" d="M8 34L23 34 23 37 25 37 25 34 40 34 42 37 6 37z"/><path fill="#efebe9" d="M40 8c0 0-15 0-15 3s0 26 0 26c0-3 15-3 15-3V8zM8 8c0 0 15 0 15 3s0 26 0 26c0-3-15-3-15-3V8z"/><path fill="#ff8a65" d="M17.4,6.3l0.2,0.8c0.1,0.7,0.7,1.2,1.3,1.3l0.8,0.2c0.4,0.1,0.4,0.7,0,0.7l-0.8,0.2c-0.7,0.1-1.2,0.7-1.3,1.3 l-0.2,0.8c-0.1,0.4-0.7,0.4-0.7,0l-0.2-0.8c-0.1-0.7-0.7-1.2-1.3-1.3l-0.8-0.2c-0.4-0.1-0.4-0.7,0-0.7l0.8-0.2 c0.7-0.1,1.2-0.7,1.3-1.3l0.2-0.8C16.7,5.9,17.3,5.9,17.4,6.3z"/><path fill="#ff7043" d="M34.2,18.2l0.1,0.6c0.1,0.4,0.4,0.8,0.9,0.9l0.6,0.1c0.3,0.1,0.3,0.4,0,0.5l-0.6,0.1c-0.4,0.1-0.8,0.4-0.9,0.9 l-0.1,0.6c-0.1,0.3-0.4,0.3-0.5,0l-0.1-0.6c-0.1-0.4-0.4-0.8-0.9-0.9l-0.6-0.1c-0.3-0.1-0.3-0.4,0-0.5l0.6-0.1 c0.4-0.1,0.8-0.4,0.9-0.9l0.1-0.6C33.8,17.9,34.2,17.9,34.2,18.2z"/><path fill="#ff8a65" d="M19.2,25.2l0.1,0.6c0.1,0.4,0.4,0.8,0.9,0.9l0.6,0.1c0.3,0.1,0.3,0.4,0,0.5l-0.6,0.1c-0.4,0.1-0.8,0.4-0.9,0.9 l-0.1,0.6c-0.1,0.3-0.4,0.3-0.5,0l-0.1-0.6c-0.1-0.4-0.4-0.8-0.9-0.9l-0.6-0.1c-0.3-0.1-0.3-0.4,0-0.5l0.6-0.1 c0.4-0.1,0.8-0.4,0.9-0.9l0.1-0.6C18.8,24.9,19.2,24.9,19.2,25.2z"/></svg>